<?xml version="1.0" standalone="no"?>
<!DOCTYPE svg PUBLIC "-//W3C//DTD SVG 20010904//EN"
 "http://www.w3.org/TR/2001/REC-SVG-20010904/DTD/svg10.dtd">
<svg version="1.0" xmlns="http://www.w3.org/2000/svg"
 width="205.000000pt" height="209.000000pt" viewBox="0 0 205.000000 209.000000"
 preserveAspectRatio="xMidYMid meet">
<metadata>
Created by potrace 1.16, written by Peter Selinger 2001-2019
</metadata>
<g transform="translate(0.000000,209.000000) scale(0.100000,-0.100000)"
fill="#000000" stroke="none">
<path d="M1044 2005 c-16 -14 -37 -25 -46 -25 -26 0 -140 -31 -170 -46 -15 -8
-37 -14 -50 -14 -26 -1 -130 -54 -122 -63 3 -3 -6 -13 -19 -22 -14 -9 -32 -34
-41 -56 -9 -21 -20 -39 -26 -39 -5 0 -10 -8 -10 -17 0 -9 -6 -24 -13 -32 -17
-20 -43 -103 -62 -197 -18 -83 -12 -246 9 -278 15 -24 33 -99 41 -170 3 -28 8
-52 10 -55 9 -9 5 114 -5 148 -7 24 -6 39 2 48 10 12 12 74 4 170 -3 51 9 73
42 73 16 0 35 -7 42 -15 11 -14 14 -13 24 7 18 35 72 45 121 21 22 -11 39 -25
37 -31 -1 -7 7 -12 18 -12 11 0 20 -4 20 -9 0 -5 14 -11 30 -15 24 -4 32 -12
36 -36 4 -16 10 -27 15 -24 5 3 9 -1 10 -8 1 -7 4 -2 8 12 4 14 13 24 19 23 7
-2 9 4 5 13 -9 24 17 35 43 18 15 -10 24 -12 29 -5 3 6 0 11 -8 11 -8 0 -22 9
-32 20 -26 29 0 25 41 -6 19 -15 34 -35 34 -48 1 -20 2 -20 15 4 8 14 14 21
15 16 0 -6 5 -5 11 1 8 8 19 9 37 2 18 -7 27 -6 32 2 5 7 9 8 11 1 2 -6 18
-14 34 -18 28 -7 29 -6 15 11 -14 17 -13 18 4 8 20 -11 56 -6 56 8 0 5 5 9 10
9 6 0 10 -6 10 -14 0 -8 5 -16 11 -18 12 -4 51 -117 44 -129 -3 -4 1 -24 9
-43 14 -33 14 -80 1 -185 -3 -26 -1 -31 7 -23 7 7 11 35 11 64 -1 31 5 63 13
76 8 12 12 22 8 22 -4 0 -2 6 4 13 6 6 18 48 27 91 17 86 12 245 -9 258 -8 5
-8 10 1 19 8 8 9 19 3 35 -6 14 -5 26 1 29 11 7 3 25 -12 25 -6 0 -7 -4 -4
-10 3 -5 0 -8 -7 -5 -8 3 -13 25 -14 62 0 34 -5 58 -12 61 -18 6 -14 22 4 22
14 0 15 2 3 17 -13 15 -11 16 10 10 l23 -6 -22 24 c-19 20 -71 40 -93 36 -5
-1 -6 3 -2 9 6 9 -5 26 -55 87 -6 7 -15 24 -20 37 -7 20 -6 26 8 29 14 4 13 5
-3 6 -11 0 -32 -7 -45 -16 l-25 -17 20 24 20 23 -38 -6 c-30 -5 -38 -3 -34 8
5 10 -1 11 -25 4 -18 -5 -34 -7 -36 -4 -3 3 -12 -1 -20 -8 -13 -10 -14 -8 -8
11 9 28 6 28 -30 -3z"/>
<path d="M630 1110 c-16 -4 -25 -13 -25 -25 0 -14 7 -20 25 -21 52 -2 55 -5
28 -20 -28 -15 -36 -38 -18 -49 6 -3 23 3 38 15 l27 22 3 -21 c2 -12 13 -26
25 -32 17 -10 24 -8 42 13 22 25 22 25 46 7 16 -13 19 -19 9 -19 -8 0 -23 -13
-32 -29 -16 -29 -16 -30 5 -21 12 4 21 15 21 24 -1 9 6 16 17 16 12 0 16 5 13
15 -4 10 0 15 11 15 14 0 16 6 10 27 -4 16 -8 29 -9 31 -3 3 -160 47 -191 54
-11 2 -31 2 -45 -2z"/>
<path d="M1165 1090 c-78 -16 -100 -21 -115 -27 -15 -6 -24 -9 -37 -12 -5 -1
-1 -7 8 -14 9 -7 17 -16 19 -22 6 -20 25 -45 34 -45 5 0 14 -7 20 -16 10 -13
12 -13 12 5 0 14 -7 21 -19 21 -17 0 -16 3 8 21 l27 22 22 -28 c25 -32 54 -29
63 5 6 24 8 24 44 3 15 -9 31 -14 35 -10 9 9 -3 37 -16 37 -6 0 -8 -6 -5 -12
4 -7 0 -5 -8 5 -8 9 -22 17 -33 17 -38 0 3 20 44 22 38 1 53 10 35 21 -18 10
-101 14 -138 7z"/>
<path d="M710 462 c21 -44 147 -185 159 -178 3 2 24 -6 45 -19 28 -17 45 -21
65 -15 42 12 126 57 142 76 12 15 11 15 -15 -1 -25 -17 -85 -28 -136 -25 -47
2 -81 8 -88 15 -4 5 -1 5 6 1 6 -4 12 -3 12 2 0 10 -37 25 -56 23 -10 -1 -34
24 -129 134 l-26 30 21 -43z"/>
<path d="M666 438 c-4 -9 -23 -19 -43 -23 -20 -3 -48 -15 -62 -26 -28 -20
-203 -89 -228 -89 -25 0 -8 -23 53 -73 316 -258 775 -301 1123 -106 66 37 191
128 191 138 0 4 -54 34 -120 65 -66 32 -120 62 -120 67 0 16 -61 40 -93 37
l-32 -3 48 -33 c60 -42 61 -64 3 -129 -61 -67 -159 -112 -260 -120 -41 -3 -83
-2 -93 2 -10 4 -34 8 -54 10 -45 4 -142 52 -194 98 -57 49 -98 111 -105 160
-5 30 -9 37 -14 25z"/>
</g>
</svg>
